<svg viewBox="-2.5 -2.5 240 240" xmlns="http://www.w3.org/2000/svg" id="Business-Deal-Handshake-1--Streamline-Ultimate.svg" height="240" width="240"><desc>Business Deal Handshake 1 Streamline Icon: https://streamlinehq.com</desc><path d="m141.97916666666666 80.78125 -34.91708333333333 11.475833333333332a11.622708333333334 11.622708333333334 0 0 1 -8.8125 -21.433958333333333l33.83020833333333 -16.910208333333333A23.764374999999998 23.764374999999998 0 0 1 150.79166666666666 52.875l49.93749999999999 18.114583333333332v68.54166666666666l-58.808749999999996 11.172291666666666" fill="none" stroke="#000000" stroke-linecap="round" stroke-linejoin="round" stroke-width="5"></path><path d="M34.27083333333333 139.53125H58.75l35.15208333333333 39.401666666666664a13.424375 13.424375 0 0 0 23.597916666666666 -8.763541666666667v-6.158958333333333l1.752708333333333 0.7049999999999998A16.577291666666667 16.577291666666667 0 0 0 141.97916666666666 149.32291666666666h4.895833333333333a14.6875 14.6875 0 0 0 11.749999999999998 -23.499999999999996L127.29166666666666 85.67708333333333" fill="none" stroke="#000000" stroke-linecap="round" stroke-linejoin="round" stroke-width="5"></path><path d="m103.32166666666666 68.238125 -3.5837499999999998 -2.9374999999999996a20.993333333333332 20.993333333333332 0 0 0 -20.268749999999997 -2.633958333333333L34.27083333333333 80.78125" fill="none" stroke="#000000" stroke-linecap="round" stroke-linejoin="round" stroke-width="5"></path><path d="M4.895833333333333 61.197916666666664h19.583333333333332a9.791666666666666 9.791666666666666 0 0 1 9.791666666666666 9.791666666666666v68.54166666666666a9.791666666666666 9.791666666666666 0 0 1 -9.791666666666666 9.791666666666666h-19.583333333333332" fill="none" stroke="#000000" stroke-linecap="round" stroke-linejoin="round" stroke-width="5"></path><path d="M230.10416666666666 149.32291666666666h-19.583333333333332a9.791666666666666 9.791666666666666 0 0 1 -9.791666666666666 -9.791666666666666v-68.54166666666666a9.791666666666666 9.791666666666666 0 0 1 9.791666666666666 -9.791666666666666h19.583333333333332" fill="none" stroke="#000000" stroke-linecap="round" stroke-linejoin="round" stroke-width="5"></path><path d="m117.5 164.01041666666666 -9.791666666666666 -9.791666666666666" fill="none" stroke="#000000" stroke-linecap="round" stroke-linejoin="round" stroke-width="5"></path><path d="m127.29166666666666 134.63541666666666 14.6875 14.6875" fill="none" stroke="#000000" stroke-linecap="round" stroke-linejoin="round" stroke-width="5"></path></svg>