<svg viewBox="-1 -1 48 48" xmlns="http://www.w3.org/2000/svg" id="Business-Deal-Handshake-1--Streamline-Ultimate.svg" height="48" width="48"><desc>Business Deal Handshake 1 Streamline Icon: https://streamlinehq.com</desc><path d="m27.791666666666668 15.8125 -6.834833333333333 2.2463333333333333a2.2750833333333333 2.2750833333333333 0 0 1 -1.725 -4.195583333333333l6.622083333333333 -3.3100833333333335A4.65175 4.65175 0 0 1 29.51666666666667 10.350000000000001l9.775 3.545833333333334v13.416666666666668l-11.511500000000002 2.186916666666667" fill="none" stroke="#000000" stroke-linecap="round" stroke-linejoin="round" stroke-width="2"></path><path d="M6.708333333333334 27.3125H11.5l6.880833333333333 7.712666666666667a2.6277500000000003 2.6277500000000003 0 0 0 4.6191666666666675 -1.7154166666666668v-1.2055833333333335l0.34308333333333335 0.13799999999999998A3.244916666666667 3.244916666666667 0 0 0 27.791666666666668 29.229166666666668h0.9583333333333334a2.875 2.875 0 0 0 2.3 -4.6L24.916666666666668 16.770833333333336" fill="none" stroke="#000000" stroke-linecap="round" stroke-linejoin="round" stroke-width="2"></path><path d="m20.224666666666668 13.35725 -0.7015 -0.575a4.109333333333334 4.109333333333334 0 0 0 -3.9675 -0.5155833333333334L6.708333333333334 15.8125" fill="none" stroke="#000000" stroke-linecap="round" stroke-linejoin="round" stroke-width="2"></path><path d="M0.9583333333333334 11.979166666666668h3.8333333333333335a1.9166666666666667 1.9166666666666667 0 0 1 1.9166666666666667 1.9166666666666667v13.416666666666668a1.9166666666666667 1.9166666666666667 0 0 1 -1.9166666666666667 1.9166666666666667h-3.8333333333333335" fill="none" stroke="#000000" stroke-linecap="round" stroke-linejoin="round" stroke-width="2"></path><path d="M45.04166666666667 29.229166666666668h-3.8333333333333335a1.9166666666666667 1.9166666666666667 0 0 1 -1.9166666666666667 -1.9166666666666667v-13.416666666666668a1.9166666666666667 1.9166666666666667 0 0 1 1.9166666666666667 -1.9166666666666667h3.8333333333333335" fill="none" stroke="#000000" stroke-linecap="round" stroke-linejoin="round" stroke-width="2"></path><path d="m23 32.10416666666667 -1.9166666666666667 -1.9166666666666667" fill="none" stroke="#000000" stroke-linecap="round" stroke-linejoin="round" stroke-width="2"></path><path d="m24.916666666666668 26.354166666666668 2.875 2.875" fill="none" stroke="#000000" stroke-linecap="round" stroke-linejoin="round" stroke-width="2"></path></svg>