<svg viewBox="-1 -1 96 96" xmlns="http://www.w3.org/2000/svg" id="Real-Estate-Dimensions-Map--Streamline-Ultimate.svg" height="96" width="96"><desc>Real Estate Dimensions Map Streamline Icon: https://streamlinehq.com</desc><path d="M90.25958333333334 91.23483333333333A1.1749999999999998 1.1749999999999998 0 0 0 92.04166666666666 90.08333333333333V16.359916666666663a3.3095833333333333 3.3095833333333333 0 0 0 -1.7820833333333332 -2.7651666666666666L66.52458333333333 2.8474166666666663a5.62825 5.62825 0 0 0 -3.63075 -0.16058333333333333L31.525249999999996 13.673083333333333a5.730083333333334 5.730083333333334 0 0 1 -3.6385833333333335 -0.14491666666666667L3.7482499999999996 2.83175a1.1749999999999998 1.1749999999999998 0 0 0 -1.7899166666666666 1.1749999999999998l0.07441666666666666 73.71558333333334a3.297833333333333 3.297833333333333 0 0 0 1.7938333333333334 2.7416666666666663l24.00133333333333 10.684666666666667a5.730083333333334 5.730083333333334 0 0 0 3.6385833333333335 0.15275l31.42733333333333 -10.966666666666665a5.655666666666666 5.655666666666666 0 0 1 3.63075 0.16058333333333333Z" fill="none" stroke="#000000" stroke-linecap="round" stroke-linejoin="round" stroke-width="2"></path><path d="M11.605083333333333 16.195416666666667a1.2298333333333333 1.2298333333333333 0 0 0 -1.8173333333333335 1.222v55.0605a3.1333333333333333 3.1333333333333333 0 0 0 1.82125 2.6790000000000003L27.80833333333333 81.5685a6.266666666666667 6.266666666666667 0 0 0 3.6777499999999996 0.09791666666666667l33.268166666666666 -11.146833333333333 17.625 6.9520833333333325a1.2415833333333333 1.2415833333333333 0 0 0 1.82125 -1.2415833333333333V23.171a3.4231666666666665 3.4231666666666665 0 0 0 -1.7546666666666666 -2.804333333333333l-15.944749999999999 -7.758916666666667a5.51075 5.51075 0 0 0 -3.615083333333333 -0.235l-31.333333333333332 10.5045a6.157 6.157 0 0 1 -3.673833333333333 -0.10966666666666666Z" fill="none" stroke="#000000" stroke-linecap="round" stroke-linejoin="round" stroke-width="2"></path><path d="m56.78775 35.16775 0 -20.7505" fill="none" stroke="#000000" stroke-linecap="round" stroke-linejoin="round" stroke-width="2"></path><path d="m9.791666666666666 56.20025 20.198249999999998 7.39075 13.203083333333332 -4.531583333333333a1.3081666666666667 1.3081666666666667 0 0 1 1.8486666666666665 1.3199166666666666v16.743750000000002" fill="none" stroke="#000000" stroke-linecap="round" stroke-linejoin="round" stroke-width="2"></path><path d="M56.791666666666664 73.18683333333333v-16.477416666666667a3.4114166666666663 3.4114166666666663 0 0 1 1.7703333333333333 -2.804333333333333l3.9715 -1.8995833333333332a5.256166666666667 5.256166666666667 0 0 1 3.5955 -0.141l18.07933333333333 6.96775" fill="none" stroke="#000000" stroke-linecap="round" stroke-linejoin="round" stroke-width="2"></path><path d="m9.78775 31.12183333333333 19.583333333333332 7.837249999999999 15.54525 -3.9166666666666665" fill="none" stroke="#000000" stroke-linecap="round" stroke-linejoin="round" stroke-width="2"></path><path d="m17.62108333333333 34.25908333333333 0 -6.924666666666666" fill="none" stroke="#000000" stroke-linecap="round" stroke-linejoin="round" stroke-width="2"></path><path d="m33.28775 37.97208333333333 0 -6.720999999999999" fill="none" stroke="#000000" stroke-linecap="round" stroke-linejoin="round" stroke-width="2"></path><path d="m25.454416666666663 37.39241666666667 0 -6.141333333333334" fill="none" stroke="#000000" stroke-linecap="round" stroke-linejoin="round" stroke-width="2"></path></svg>