<svg xmlns="http://www.w3.org/2000/svg" fill="none" viewBox="0 0 240 240" id="Team-Meeting--Streamline-Nova.svg" height="240" width="240"><desc>Team Meeting Streamline Icon: https://streamlinehq.com</desc><path fill="#000000" fill-rule="evenodd" d="M95 24.9898c-0.002 4.945399999999999 1.4627000000000001 9.7803 4.209 13.8931 2.746 4.1128 6.651 7.3187 11.219 9.2121 4.569 1.8935 9.596 2.3894 14.447000000000001 1.4251 4.85 -0.9643 9.306 -3.3455000000000004 12.803 -6.8424 3.497 -3.497 5.878 -7.952500000000001 6.8420000000000005 -12.803 0.964 -4.8504000000000005 0.468 -9.8779 -1.4249999999999998 -14.4465 -1.893 -4.5686 -5.099 -8.47294 -9.212 -11.2192C129.77 1.46274 124.93499999999999 -0.00202015 119.99000000000001 0c-6.627 0.00271191 -12.982 2.6364199999999998 -17.668 7.32233C97.63640000000001 12.0082 95.0027 18.3629 95 24.9898ZM75.76870000000001 63.327299999999994C58.9273 74.52499999999999 46.586299999999994 91.91789999999999 41.9811 112.213l-19.5042 -4.426c5.7697 -25.4269 21.2087 -47.1453 42.2183 -61.1143l11.073500000000001 16.6546ZM93.3325 205.45000000000002C101.66 208.394 110.632 210 120 210c9.368 0 18.34 -1.6059999999999999 26.668 -4.55l6.664 18.857C142.894 227.997 131.67 230 120 230c-11.67 0 -22.8937 -2.003 -33.3325 -5.6930000000000005l6.665 -18.857Zm104.6865 -93.23700000000001c-4.586 -20.212 -16.845000000000002 -37.545700000000004 -33.580999999999996 -48.7481l11.124 -16.6203c20.878 13.9748 36.215 35.6194 41.961000000000006 60.9424l-19.503999999999998 4.426ZM120 60c-16.569 0 -30 13.4315 -30 30v25h60V90c0 -16.5685 -13.431 -30 -30 -30Zm65 89.99000000000001c-0.002 4.945 1.463 9.78 4.209 13.893 2.746 4.1129999999999995 6.651 7.319 11.219 9.212 4.569 1.893 9.596 2.3890000000000002 14.447000000000001 1.4249999999999998 4.85 -0.964 9.306 -3.345 12.803 -6.8420000000000005s5.878 -7.953 6.8420000000000005 -12.803c0.964 -4.851 0.468 -9.878 -1.4249999999999998 -14.447000000000001 -1.893 -4.568 -5.099 -8.473 -9.212 -11.219 -4.1129999999999995 -2.746 -8.948 -4.210999999999999 -13.893 -4.209 -6.627 0.0029999999999999996 -12.982 2.636 -17.668 7.321999999999999 -4.686 4.686 -7.319 11.041 -7.321999999999999 17.668ZM210 185c-16.569 0 -30 13.431 -30 30V240h60v-25c0 -16.569 -13.431 -30 -30 -30ZM5 149.99c-0.00202 4.945 1.46274 9.78 4.209 13.893 2.7462999999999997 4.1129999999999995 6.6506 7.319 11.2192 9.212 4.5686 1.893 9.5961 2.3890000000000002 14.4466 1.4249999999999998 4.8504000000000005 -0.964 9.305900000000001 -3.345 12.8029 -6.8420000000000005 3.4969 -3.497 5.878100000000001 -7.953 6.8424 -12.803 0.9643 -4.851 0.4684 -9.878 -1.4251 -14.447000000000001 -1.8934000000000002 -4.568 -5.0992999999999995 -8.473 -9.2121 -11.219 -4.1128 -2.746 -8.9477 -4.210999999999999 -13.8931 -4.209 -6.6269 0.0029999999999999996 -12.9816 2.636 -17.6675 7.321999999999999C7.63642 137.00799999999998 5.00271 143.363 5 149.99ZM30 185c-16.5685 0 -30 13.431 -30 30V240h60v-25c0 -16.569 -13.4315 -30 -30 -30Z" clip-rule="evenodd" stroke-width="1"></path></svg>